<svg width="152" height="50" viewBox="0 0 152 50" fill="none" xmlns="http://www.w3.org/2000/svg">
<path d="M26.3768 32.9952V17.5362H15.5556V45.0006C16.7876 44.3482 18.7679 43.2135 20.7003 41.6908C23.285 39.6611 26.3768 36.4982 26.3768 32.9952ZM31.0145 14.4445V32.9952C31.0145 43.1641 16.7876 49.5888 16.1832 49.8547C15.99 49.9521 15.772 50 15.5556 50C15.3391 50 15.1212 49.9521 14.9279 49.8547C14.3235 49.5888 0.096636 43.1641 0.096636 32.9952V14.4445C0.096636 13.5988 0.796926 12.8986 1.64253 12.8986H29.4686C30.3142 12.8986 31.0145 13.5988 31.0145 14.4445Z" fill="#00A8FF"/>
<path d="M0 7.43961C0 6.87932 0.454204 6.42512 1.01449 6.42512H30.0966C30.6569 6.42512 31.1111 6.87932 31.1111 7.43961V9.13043C31.1111 9.69072 30.6569 10.1449 30.0966 10.1449H1.01449C0.454204 10.1449 0 9.69072 0 9.13043V7.43961Z" fill="#00A8FF"/>
<path d="M0 1.01449C0 0.454204 0.454204 0 1.01449 0H30.0966C30.6569 0 31.1111 0.454204 31.1111 1.01449V2.70531C31.1111 3.2656 30.6569 3.71981 30.0966 3.71981H1.01449C0.454204 3.71981 0 3.2656 0 2.70531V1.01449Z" fill="#00A8FF"/>
<path d="M53.2377 24.0335C54.8807 24.6165 55.7023 25.9601 55.7023 28.0641V32.4749C55.7023 35.8211 54.135 37.4941 51.0006 37.4941H41.256V12.8923H50.6973C53.8317 12.8923 55.3989 14.5654 55.3989 17.9115V20.155C55.3989 22.183 54.6785 23.4758 53.2377 24.0335ZM49.3702 16.5046H46.5644V23.0829H49.3702C49.5724 23.0829 49.7367 23.0068 49.8631 22.8547C50.0148 22.7026 50.0906 22.5252 50.0906 22.3224V17.2651C50.0906 17.0623 50.0148 16.8849 49.8631 16.7328C49.7367 16.5807 49.5724 16.5046 49.3702 16.5046ZM50.3939 33.0833V27.5698C50.3939 27.367 50.3181 27.1895 50.1664 27.0374C50.0401 26.8853 49.8757 26.8093 49.6735 26.8093H46.5644V33.8438H49.6735C49.8757 33.8438 50.0401 33.7677 50.1664 33.6157C50.3181 33.4636 50.3939 33.2861 50.3939 33.0833Z" fill="#00A8FF"/>
<path d="M69.0703 12.5121C72.2047 12.5121 73.7719 14.1852 73.7719 17.5313V37.4941H68.4636V29.2428H64.634V37.4941H59.3257V17.5313C59.3257 14.1852 60.8929 12.5121 64.0273 12.5121H69.0703ZM64.634 25.1362H68.4636V16.8849C68.4636 16.6821 68.3878 16.5046 68.2361 16.3525C68.1097 16.2004 67.9454 16.1244 67.7432 16.1244H65.3544C65.1522 16.1244 64.9753 16.2004 64.8236 16.3525C64.6972 16.5046 64.634 16.6821 64.634 16.8849V25.1362Z" fill="#00A8FF"/>
<path d="M91.3406 19.3565H86.2977V17.4172C86.2977 17.2144 86.2219 17.037 86.0702 16.8849C85.9438 16.7328 85.7795 16.6567 85.5773 16.6567H83.4919C83.2897 16.6567 83.1127 16.7328 82.9611 16.8849C82.8347 17.037 82.7715 17.2144 82.7715 17.4172V21.79C82.7715 21.9928 82.8347 22.1703 82.9611 22.3224C83.1127 22.4745 83.2897 22.5505 83.4919 22.5505H86.9044C90.0388 22.6012 91.6061 24.2743 91.6061 27.5698V32.8552C91.6061 36.2013 90.0388 37.8744 86.9044 37.8744H82.4302C79.2958 37.8744 77.7286 36.2013 77.7286 32.8552V30.3075H82.7715V33.0453C82.7715 33.2481 82.8347 33.4255 82.9611 33.5776C83.1127 33.7297 83.2897 33.8058 83.4919 33.8058H85.8427C86.0449 33.8058 86.2093 33.7297 86.3356 33.5776C86.4873 33.4255 86.5631 33.2481 86.5631 33.0453V28.2162C86.5631 28.0134 86.4873 27.8359 86.3356 27.6838C86.2093 27.5317 86.0449 27.4557 85.8427 27.4557H82.4302C79.2958 27.4557 77.7286 25.7826 77.7286 22.4365V17.5313C77.7286 14.1852 79.2958 12.5121 82.4302 12.5121H86.639C89.7734 12.5121 91.3406 14.1852 91.3406 17.5313V19.3565Z" fill="#00A8FF"/>
<path d="M93.6918 17.4172V12.8923H106.963V17.4172H102.981V37.4941H97.673V17.4172H93.6918Z" fill="#00A8FF"/>
<path d="M115.454 12.8923V37.4941H110.146V12.8923H115.454Z" fill="#00A8FF"/>
<path d="M133.849 17.5313V32.8552C133.849 36.2013 132.282 37.8744 129.147 37.8744H124.104C120.97 37.8744 119.403 36.2013 119.403 32.8552V17.5313C119.403 14.1852 120.97 12.5121 124.104 12.5121H129.147C132.282 12.5121 133.849 14.1852 133.849 17.5313ZM128.541 33.4636V16.8849C128.541 16.6821 128.465 16.5046 128.313 16.3525C128.187 16.2004 128.023 16.1244 127.82 16.1244H125.432C125.229 16.1244 125.052 16.2004 124.901 16.3525C124.774 16.5046 124.711 16.6821 124.711 16.8849V33.4636C124.711 33.6664 124.774 33.8438 124.901 33.9959C125.052 34.148 125.229 34.224 125.432 34.224H127.82C128.023 34.224 128.187 34.148 128.313 33.9959C128.465 33.8438 128.541 33.6664 128.541 33.4636Z" fill="#00A8FF"/>
<path d="M151.836 37.4941H146.527V17.075C146.527 16.8722 146.452 16.6948 146.3 16.5427C146.174 16.3906 146.009 16.3145 145.807 16.3145H143.759C143.557 16.3145 143.38 16.3906 143.229 16.5427C143.102 16.6948 143.039 16.8722 143.039 17.075V37.4941H137.731V17.5313C137.731 14.1852 139.298 12.5121 142.432 12.5121H147.134C150.269 12.5121 151.836 14.1852 151.836 17.5313V37.4941Z" fill="#00A8FF"/>
</svg>
