<svg width="137" height="31" viewBox="0 0 137 31" fill="none" xmlns="http://www.w3.org/2000/svg">
<path d="M12.53 6.98997C12.1627 6.30937 11.9704 5.54811 11.9704 4.77471C11.9704 4.00131 12.1627 3.24005 12.53 2.55945V2.55945L1.35107 23.261C1.9386 22.1741 2.93383 21.3651 4.11782 21.012C5.30182 20.6589 6.5776 20.7906 7.6645 21.3781C8.75139 21.9657 9.56038 22.9609 9.91349 24.1449C10.2666 25.3289 10.1349 26.6047 9.54739 27.6916V27.6916L16.6527 14.5373L12.53 6.98997Z" fill="#4CCCF4"/>
<path d="M43.2027 6.98839C42.6152 8.07529 41.6199 8.88428 40.4359 9.23739C39.252 9.5905 37.9762 9.45881 36.8893 8.87128C35.8024 8.28376 34.9934 7.28853 34.6403 6.10453C34.2872 4.92054 34.4189 3.64476 35.0064 2.55786V2.55786L27.9011 15.6994L31.9859 23.1773C32.3728 23.8653 32.5787 24.6403 32.5842 25.4296C32.5897 26.2189 32.3947 26.9966 32.0174 27.69V27.69L43.2043 6.98997L43.2027 6.98839Z" fill="#FFB1CC"/>
<path d="M23.8243 23.261L27.9074 15.6994L20.7264 2.55786C21.0937 3.23846 21.286 3.99972 21.286 4.77312C21.286 5.54652 21.0937 6.30779 20.7264 6.98839V6.98839L16.6479 14.5358L23.7895 27.6063C23.4403 26.9341 23.2604 26.1868 23.2654 25.4293C23.2703 24.6719 23.46 23.927 23.8179 23.2594L23.8243 23.261Z" fill="#E1E600"/>
<path d="M20.7264 6.9884C20.3272 7.72819 19.7353 8.3462 19.0134 8.77694C18.2915 9.20768 17.4666 9.4351 16.6259 9.4351C15.7853 9.4351 14.9603 9.20768 14.2384 8.77694C13.5165 8.3462 12.9246 7.72819 12.5254 6.9884L16.6496 14.5358L20.7264 6.98998V6.9884Z" fill="#43B800"/>
<path d="M27.9074 15.6995L23.8242 23.261C24.2186 22.5256 24.8033 21.9097 25.5171 21.4776C26.231 21.0455 27.0479 20.8131 27.8823 20.8047C28.7167 20.7963 29.5381 21.0122 30.2605 21.4299C30.9829 21.8475 31.5799 22.4516 31.989 23.1789V23.1789L27.9074 15.6995Z" fill="#E1A000"/>
<path d="M5.45794 30.12C8.03043 30.12 10.1158 28.0346 10.1158 25.4621C10.1158 22.8896 8.03043 20.8042 5.45794 20.8042C2.88546 20.8042 0.800049 22.8896 0.800049 25.4621C0.800049 28.0346 2.88546 30.12 5.45794 30.12Z" fill="#4088CD"/>
<path d="M16.6306 9.43579C19.203 9.43579 21.2884 7.35037 21.2884 4.77789C21.2884 2.20541 19.203 0.119995 16.6306 0.119995C14.0581 0.119995 11.9727 2.20541 11.9727 4.77789C11.9727 7.35037 14.0581 9.43579 16.6306 9.43579Z" fill="#009148"/>
<path d="M27.9296 30.12C30.5021 30.12 32.5875 28.0346 32.5875 25.4621C32.5875 22.8896 30.5021 20.8042 27.9296 20.8042C25.3571 20.8042 23.2717 22.8896 23.2717 25.4621C23.2717 28.0346 25.3571 30.12 27.9296 30.12Z" fill="#FF7500"/>
<path d="M39.1022 9.43579C41.6747 9.43579 43.7601 7.35037 43.7601 4.77789C43.7601 2.20541 41.6747 0.119995 39.1022 0.119995C36.5297 0.119995 34.4443 2.20541 34.4443 4.77789C34.4443 7.35037 36.5297 9.43579 39.1022 9.43579Z" fill="#9757AB"/>
<path d="M46.858 12.8274C46.8565 12.6852 46.8832 12.5442 46.9364 12.4124C46.9897 12.2806 47.0684 12.1606 47.1682 12.0593C47.268 11.9581 47.3868 11.8776 47.5178 11.8224C47.6489 11.7672 47.7895 11.7385 47.9316 11.7379H48.1685C48.6895 11.7379 48.9895 12.0063 49.2895 12.3695L55.4159 20.2958V12.7642C55.4159 12.4836 55.5273 12.2146 55.7257 12.0162C55.9241 11.8178 56.1932 11.7063 56.4738 11.7063C56.7543 11.7063 57.0234 11.8178 57.2218 12.0162C57.4202 12.2146 57.5317 12.4836 57.5317 12.7642V23.0589C57.5354 23.197 57.5118 23.3344 57.4622 23.4633C57.4125 23.5922 57.3378 23.7099 57.2424 23.8098C57.1469 23.9096 57.0327 23.9896 56.9062 24.045C56.7797 24.1004 56.6434 24.1302 56.5053 24.1326H56.3948C55.8895 24.1326 55.5738 23.8642 55.2738 23.4853L48.9738 15.3221V23.0905C48.9738 23.2294 48.9464 23.367 48.8932 23.4954C48.8401 23.6237 48.7621 23.7403 48.6639 23.8386C48.5657 23.9368 48.449 24.0147 48.3207 24.0679C48.1924 24.1211 48.0548 24.1484 47.9159 24.1484C47.7769 24.1484 47.6394 24.1211 47.511 24.0679C47.3827 24.0147 47.266 23.9368 47.1678 23.8386C47.0696 23.7403 46.9917 23.6237 46.9385 23.4954C46.8853 23.367 46.858 23.2294 46.858 23.0905V12.8274V12.8274ZM59.979 22.98V12.8905C59.9743 12.6083 60.0811 12.3356 60.2762 12.1317C60.4713 11.9277 60.739 11.8089 61.0211 11.801H68.1738C68.4292 11.801 68.6742 11.9025 68.8548 12.0831C69.0354 12.2638 69.1369 12.5088 69.1369 12.7642C69.1369 13.0196 69.0354 13.2646 68.8548 13.4453C68.6742 13.6259 68.4292 13.7274 68.1738 13.7274H62.1106V16.9168H67.3843C67.5108 16.9168 67.636 16.9417 67.7529 16.9902C67.8697 17.0386 67.9759 17.1095 68.0653 17.1989C68.1548 17.2884 68.2257 17.3946 68.2741 17.5114C68.3225 17.6283 68.3474 17.7535 68.3474 17.88C68.3474 18.0065 68.3225 18.1317 68.2741 18.2486C68.2257 18.3654 68.1548 18.4716 68.0653 18.561C67.9759 18.6505 67.8697 18.7214 67.7529 18.7698C67.636 18.8182 67.5108 18.8432 67.3843 18.8432H62.1106V22.1274H68.2527C68.3792 22.1274 68.5044 22.1523 68.6213 22.2007C68.7381 22.2491 68.8443 22.32 68.9338 22.4095C69.0232 22.4989 69.0941 22.6051 69.1425 22.7219C69.1909 22.8388 69.2159 22.964 69.2159 23.0905C69.2159 23.217 69.1909 23.3422 69.1425 23.4591C69.0941 23.576 69.0232 23.6821 68.9338 23.7716C68.8443 23.861 68.7381 23.932 68.6213 23.9804C68.5044 24.0288 68.3792 24.0537 68.2527 24.0537H61.0369C60.7547 24.0584 60.482 23.9516 60.2781 23.7565C60.0741 23.5614 59.9553 23.2937 59.9474 23.0116C59.979 23.0116 59.979 22.9958 59.979 22.98V22.98ZM70.6053 13.1905C70.5481 13.0554 70.516 12.9109 70.5106 12.7642C70.5189 12.478 70.6395 12.2066 70.8463 12.0086C71.0531 11.8106 71.3296 11.702 71.6159 11.7063V11.7063C71.8559 11.7052 72.0898 11.7814 72.2832 11.9236C72.4766 12.0657 72.619 12.2664 72.6895 12.4958L75.5159 20.9432L78.279 12.5589C78.4527 12.0537 78.8159 11.7063 79.3685 11.7063H79.5264C79.7768 11.7074 80.0198 11.7918 80.217 11.9462C80.4143 12.1005 80.5546 12.3161 80.6159 12.5589L83.379 20.9432L86.1895 12.5116C86.2603 12.2866 86.4011 12.0902 86.5914 11.951C86.7818 11.8118 87.0116 11.7371 87.2474 11.7379C87.5256 11.7328 87.7945 11.8378 87.9956 12.03C88.1967 12.2222 88.3137 12.4861 88.3211 12.7642C88.3087 12.9166 88.2713 13.066 88.2106 13.2063L84.579 23.3589C84.3895 23.8958 83.979 24.2589 83.458 24.2589H83.2527C82.7317 24.2589 82.3369 23.9274 82.1474 23.3589L79.4159 15.3537L76.6843 23.3589C76.4948 23.9274 76.0843 24.2589 75.5632 24.2589H75.358C74.8369 24.2589 74.4422 23.9274 74.2369 23.3589L70.6053 13.1905ZM89.9001 12.8905C89.8984 12.7504 89.9245 12.6113 89.9769 12.4813C90.0293 12.3513 90.1069 12.233 90.2052 12.1332C90.3036 12.0334 90.4208 11.954 90.55 11.8997C90.6792 11.8454 90.8178 11.8172 90.958 11.8168H98.1264C98.386 11.8168 98.635 11.92 98.8186 12.1036C99.0022 12.2872 99.1053 12.5361 99.1053 12.7958C99.1053 13.0554 99.0022 13.3044 98.8186 13.488C98.635 13.6716 98.386 13.7747 98.1264 13.7747H92.0474V17.1221H97.3369C97.5965 17.1221 97.8455 17.2252 98.0291 17.4088C98.2127 17.5924 98.3159 17.8414 98.3159 18.101C98.3159 18.3607 98.2127 18.6097 98.0291 18.7933C97.8455 18.9769 97.5965 19.08 97.3369 19.08H92.0474V23.0905C92.0474 23.3753 91.9343 23.6484 91.733 23.8497C91.5316 24.0511 91.2585 24.1642 90.9738 24.1642C90.689 24.1642 90.4159 24.0511 90.2145 23.8497C90.0132 23.6484 89.9001 23.3753 89.9001 23.0905V12.8905ZM98.758 22.6642L103.305 12.5116C103.407 12.2507 103.585 12.0267 103.816 11.8689C104.047 11.711 104.32 11.6268 104.6 11.6274H104.711C105.326 11.6274 105.737 11.9589 105.99 12.5116L110.537 22.6642C110.617 22.8036 110.661 22.9612 110.663 23.1221C110.667 23.254 110.645 23.3855 110.598 23.5088C110.551 23.6321 110.48 23.7448 110.389 23.8404C110.298 23.9359 110.188 24.0123 110.068 24.0652C109.947 24.1181 109.816 24.1464 109.684 24.1484H109.653C109.147 24.1484 108.8 23.8484 108.595 23.3905L107.6 21.101H101.647L100.621 23.4695C100.546 23.6718 100.41 23.8458 100.232 23.9675C100.054 24.0891 99.8421 24.1524 99.6264 24.1484C99.4965 24.1507 99.3674 24.1271 99.2467 24.0789C99.126 24.0307 99.0161 23.959 98.9235 23.8678C98.8308 23.7767 98.7573 23.6679 98.7072 23.548C98.6571 23.4281 98.6314 23.2994 98.6317 23.1695V23.1537C98.6208 22.9813 98.665 22.8098 98.758 22.6642V22.6642ZM106.779 19.2063L104.632 14.2484L102.468 19.2063H106.779ZM112.29 12.8432C112.289 12.5568 112.402 12.2818 112.603 12.0779C112.804 11.8739 113.077 11.7574 113.363 11.7537H113.6C114.121 11.7537 114.421 12.0221 114.721 12.3853L120.847 20.3116V12.78C120.862 12.5094 120.98 12.2548 121.177 12.0685C121.374 11.8822 121.634 11.7783 121.905 11.7783C122.176 11.7783 122.437 11.8822 122.634 12.0685C122.831 12.2548 122.948 12.5094 122.963 12.78V23.0747C122.967 23.2128 122.943 23.3502 122.894 23.4791C122.844 23.608 122.769 23.7257 122.674 23.8256C122.579 23.9254 122.464 24.0053 122.338 24.0608C122.211 24.1162 122.075 24.146 121.937 24.1484H121.811C121.305 24.1484 120.99 23.88 120.69 23.501L114.39 15.3379V23.1063C114.375 23.3769 114.257 23.6315 114.06 23.8178C113.863 24.0041 113.603 24.108 113.332 24.108C113.061 24.108 112.8 24.0041 112.603 23.8178C112.406 23.6315 112.289 23.3769 112.274 23.1063L112.29 12.8432ZM124.874 17.9747V17.9432C124.874 14.5168 127.495 11.6116 131.19 11.6116C133.021 11.6116 134.253 12.0537 135.374 12.8589C135.508 12.9612 135.617 13.0923 135.694 13.2427C135.77 13.393 135.812 13.5587 135.816 13.7274C135.815 14.012 135.702 14.2848 135.501 14.4861C135.3 14.6874 135.027 14.8006 134.742 14.801C134.5 14.7889 134.268 14.7005 134.079 14.5484C133.226 13.8902 132.171 13.5496 131.095 13.5853C128.837 13.5853 127.116 15.5589 127.116 17.9116V17.9432C127.116 20.4695 128.774 22.3168 131.284 22.3168C132.347 22.3288 133.387 22.0025 134.253 21.3853V19.0958H131.837C131.712 19.0979 131.589 19.0754 131.473 19.0297C131.357 18.9841 131.252 18.916 131.162 18.8295C131.073 18.743 131.001 18.6397 130.952 18.5256C130.902 18.4114 130.876 18.2886 130.874 18.1642C130.878 17.9115 130.981 17.6706 131.161 17.4933C131.342 17.3161 131.584 17.2168 131.837 17.2168H135.247C135.532 17.213 135.807 17.3223 136.011 17.5206C136.215 17.7189 136.332 17.9901 136.337 18.2747V21.5747C136.35 21.8493 136.286 22.1221 136.152 22.3621C136.018 22.6021 135.82 22.7998 135.579 22.9326C134.29 23.7975 132.773 24.2593 131.221 24.2589C127.384 24.2747 124.874 21.5432 124.874 17.9747Z" fill="#111111"/>
</svg>
